<svg width="1200" height="675" viewBox="0 0 1200 675" fill="none" xmlns="http://www.w3.org/2000/svg">
  <rect width="1200" height="675" fill="#F8F5E8"/>
  <rect x="70" y="70" width="1060" height="535" rx="24" fill="#FFFDF5" stroke="#D6D0B8" stroke-width="2"/>
  <rect x="140" y="300" width="120" height="74" rx="10" fill="#F6E9AF" stroke="#5A5247" stroke-width="3"/>
  <rect x="360" y="300" width="160" height="74" rx="10" fill="#DDEED9" stroke="#5A5247" stroke-width="3"/>
  <rect x="620" y="300" width="140" height="74" rx="10" fill="#DCE8FF" stroke="#5A5247" stroke-width="3"/>
  <rect x="860" y="300" width="160" height="74" rx="10" fill="#FFE1DF" stroke="#5A5247" stroke-width="3"/>
  <circle cx="80" cy="337" r="28" fill="#FFF" stroke="#5A5247" stroke-width="3"/>
  <path d="M108 337H140" stroke="#5A5247" stroke-width="4" stroke-linecap="round"/>
  <path d="M260 337H360" stroke="#5A5247" stroke-width="4" stroke-linecap="round"/>
  <path d="M520 337H620" stroke="#5A5247" stroke-width="4" stroke-linecap="round"/>
  <path d="M760 337H860" stroke="#5A5247" stroke-width="4" stroke-linecap="round"/>
  <path d="M1020 337H1090V495H80V365" stroke="#6A67D8" stroke-width="4" stroke-linecap="round" stroke-linejoin="round"/>
  <path d="M80 495H210" stroke="#6A67D8" stroke-width="4" stroke-linecap="round"/>
  <text x="600" y="170" text-anchor="middle" fill="#5B3553" font-size="42" font-family="Segoe UI, Microsoft YaHei, sans-serif" font-weight="700">Ļ©¦6¤F■</text>
  <text x="600" y="220" text-anchor="middle" fill="#6B7280" font-size="24" font-family="Segoe UI, Microsoft YaHei, sans-serif">Project Thumbnail</text>
  <text x="200" y="346" text-anchor="middle" fill="#2A2A2A" font-size="22" font-family="Segoe UI, Microsoft YaHei, sans-serif">ōe</text>
  <text x="440" y="346" text-anchor="middle" fill="#2A2A2A" font-size="22" font-family="Segoe UI, Microsoft YaHei, sans-serif">¦6h</text>
  <text x="690" y="346" text-anchor="middle" fill="#2A2A2A" font-size="22" font-family="Segoe UI, Microsoft YaHei, sans-serif">gLh</text>
  <text x="940" y="346" text-anchor="middle" fill="#2A2A2A" font-size="22" font-family="Segoe UI, Microsoft YaHei, sans-serif">½¦∙a</text>
</svg>
